<svg xmlns="http://www.w3.org/2000/svg" xmlns:xlink="http://www.w3.org/1999/xlink" viewBox="0 0 251.33 102.67"><defs><style>.cls-1{fill:#fff;}.cls-2{fill:url(#linear-gradient);}.cls-3{fill:url(#linear-gradient-2);}.cls-4{fill:url(#linear-gradient-3);}.cls-5{fill:url(#linear-gradient-4);}</style><linearGradient id="linear-gradient" x1="80.95" y1="37.33" x2="94.39" y2="51.4" gradientUnits="userSpaceOnUse"><stop offset="0" stop-opacity="0.2"/><stop offset="1" stop-color="#fff" stop-opacity="0"/></linearGradient><linearGradient id="linear-gradient-2" x1="40.37" y1="82.3" x2="50.83" y2="93.9" xlink:href="#linear-gradient"/><linearGradient id="linear-gradient-3" x1="62.32" y1="20.95" x2="55.07" y2="11.07" xlink:href="#linear-gradient"/><linearGradient id="linear-gradient-4" x1="20.96" y1="62.78" x2="9" y2="52.08" xlink:href="#linear-gradient"/></defs><title>jc logo</title><g id="Layer_2" data-name="Layer 2"><g id="Layer_1-2" data-name="Layer 1"><g id="_Group_" data-name="&lt;Group&gt;"><g id="_Group_2" data-name="&lt;Group&gt;"><g id="_Group_3" data-name="&lt;Group&gt;"><g id="_Group_4" data-name="&lt;Group&gt;"><polygon id="_Path_" data-name="&lt;Path&gt;" class="cls-1" points="51.33 102.67 28.52 79.85 79.85 28.52 102.67 51.33 84.13 69.87 75.57 61.31 85.56 51.33 79.85 45.63 45.63 79.85 51.33 85.56 61.31 75.57 69.87 84.13 51.33 102.67"/></g><g id="_Group_5" data-name="&lt;Group&gt;"><polygon id="_Path_2" data-name="&lt;Path&gt;" class="cls-1" points="22.82 74.15 0 51.33 18.54 32.8 27.09 41.35 17.11 51.33 22.82 57.04 57.04 22.82 51.33 17.11 41.35 27.09 32.8 18.54 51.33 0 74.15 22.82 22.82 74.15"/></g></g><g id="_Group_6" data-name="&lt;Group&gt;"><polygon id="_Path_3" data-name="&lt;Path&gt;" class="cls-2" points="79.88 45.4 88.42 36.73 102.67 50.87 85.61 50.87 79.88 45.4"/><polyline id="_Path_4" data-name="&lt;Path&gt;" class="cls-3" points="45.63 79.51 37.07 88.24 51.33 102.67 51.33 84.87"/><polygon id="_Path_5" data-name="&lt;Path&gt;" class="cls-4" points="57.04 22.82 65.59 14.26 51.33 0 51.33 17.12 57.04 22.82"/><polygon id="_Path_6" data-name="&lt;Path&gt;" class="cls-5" points="22.81 56.8 14.26 65.25 0 50.87 17.11 50.87 22.81 56.8"/></g></g></g><path class="cls-1" d="M127.53,41.28a4.36,4.36,0,0,0,2.36.63,5.27,5.27,0,0,0,3.45-1.25A4.27,4.27,0,0,0,134.6,39a6,6,0,0,0,.47-2.52V16.25h4.54V36.9a8.93,8.93,0,0,1-3,7A9.86,9.86,0,0,1,130,46.45q-5.22-.12-7.78-3.9l3.65-2.65A5.07,5.07,0,0,0,127.53,41.28Z"/><path class="cls-1" d="M144.15,35.52a18.62,18.62,0,0,1,.56-5.18,7.54,7.54,0,0,1,1.76-3,8.2,8.2,0,0,1,2.47-1.91,9.18,9.18,0,0,1,4-.84,9.38,9.38,0,0,1,4.08.84,7.79,7.79,0,0,1,2.39,1.91,6.8,6.8,0,0,1,1.81,3,20.22,20.22,0,0,1,.51,5.18,19.67,19.67,0,0,1-.51,5.14,7.32,7.32,0,0,1-1.81,3.06,7.09,7.09,0,0,1-1,.93,4.62,4.62,0,0,1-1.38.88,8.43,8.43,0,0,1-4.08.92,8.88,8.88,0,0,1-6.48-2.73,8.16,8.16,0,0,1-1.76-3.06A18.11,18.11,0,0,1,144.15,35.52Zm13.3,0a18.79,18.79,0,0,0-.21-3.33,4,4,0,0,0-.84-1.76,3.13,3.13,0,0,0-1.4-1.13,4.58,4.58,0,0,0-2.05-.43,4.69,4.69,0,0,0-2,.43,3.77,3.77,0,0,0-1.44,1.13,5,5,0,0,0-.8,1.76,16.23,16.23,0,0,0-.24,3.29,15.78,15.78,0,0,0,.24,3.25,5.52,5.52,0,0,0,.8,1.85,5.34,5.34,0,0,0,1.44,1.09,4.57,4.57,0,0,0,2,.45,4.45,4.45,0,0,0,2.05-.45,4.13,4.13,0,0,0,1.4-1.09,4.35,4.35,0,0,0,.84-1.85A17.63,17.63,0,0,0,157.45,35.56Z"/><path class="cls-1" d="M177.44,44.32h-.08a3.61,3.61,0,0,1-1.85,1.6,8.73,8.73,0,0,1-3.41.53,7.72,7.72,0,0,1-5.51-1.89,5.87,5.87,0,0,1-2-4.62,6.08,6.08,0,0,1,1.76-4.46,7.1,7.1,0,0,1,5.18-1.85h5.94V31.39c0-1.87-1.43-2.79-4.38-2.73a7.68,7.68,0,0,0-2.52.33A3.15,3.15,0,0,0,169,30.3l-3.36-2.57c1.62-2.13,4-3.17,7.21-3.12a11.43,11.43,0,0,1,6.43,1.52c1.6,1.07,2.42,2.91,2.44,5.51V46.21h-4.29ZM166.55,21.71a6.63,6.63,0,0,1,1.6-3.57,4.13,4.13,0,0,1,3.17-1.3,5.67,5.67,0,0,1,1.54.21,10.05,10.05,0,0,1,1.48.53,10.11,10.11,0,0,0,1.44.56,2.93,2.93,0,0,0,1.25.29,2,2,0,0,0,1.23-.37,2.18,2.18,0,0,0,.74-1.48h2.53A6.9,6.9,0,0,1,180.15,20a3.92,3.92,0,0,1-3.24,1.52,4.71,4.71,0,0,1-1.57-.29c-.56-.15-1.09-.32-1.6-.51a7.49,7.49,0,0,0-2.9-.76,2.39,2.39,0,0,0-1.08.32,1.61,1.61,0,0,0-.68,1.48Zm10.89,15.46H172.3q-3.74.07-3.7,2.57a2.28,2.28,0,0,0,1,1.84,4.46,4.46,0,0,0,3.06.85,7.59,7.59,0,0,0,3.8-.64c.67-.45,1-1.48,1-3.08Z"/><path class="cls-1" d="M186.24,35.52a18.69,18.69,0,0,1,.55-5.18,7.45,7.45,0,0,1,1.77-3A8.27,8.27,0,0,1,191,25.45a9.21,9.21,0,0,1,4-.84,9.4,9.4,0,0,1,4.09.84,7.74,7.74,0,0,1,2.38,1.91,6.71,6.71,0,0,1,1.81,3,20.22,20.22,0,0,1,.51,5.18,19.67,19.67,0,0,1-.51,5.14,7.21,7.21,0,0,1-1.81,3.06,7,7,0,0,1-1,.93,4.89,4.89,0,0,1-1.38.88,8.45,8.45,0,0,1-4.09.92,8.83,8.83,0,0,1-6.47-2.73,8,8,0,0,1-1.77-3.06A18.18,18.18,0,0,1,186.24,35.52Zm13.29,0a20.08,20.08,0,0,0-.2-3.33,3.86,3.86,0,0,0-.85-1.76,3.07,3.07,0,0,0-1.4-1.13,4.55,4.55,0,0,0-2.05-.43,4.62,4.62,0,0,0-2,.43,3.77,3.77,0,0,0-1.44,1.13,4.81,4.81,0,0,0-.8,1.76,15.38,15.38,0,0,0-.25,3.29,15,15,0,0,0,.25,3.25,5.33,5.33,0,0,0,.8,1.85A5.34,5.34,0,0,0,193,41.71a4.49,4.49,0,0,0,2,.45,4.42,4.42,0,0,0,2.05-.45,4,4,0,0,0,1.4-1.09,4.24,4.24,0,0,0,.85-1.85A18.84,18.84,0,0,0,199.53,35.56Z"/><path class="cls-1" d="M145.55,77.79a11.25,11.25,0,0,1-3.76,6.41A10.71,10.71,0,0,1,135,86.42a10.55,10.55,0,0,1-5.9-1.73A10,10,0,0,1,125.64,81c-.22-.46-.42-.89-.6-1.3a8.77,8.77,0,0,1-.41-1.6,51,51,0,0,1-.31-7,50.72,50.72,0,0,1,.31-7,8.37,8.37,0,0,1,1-2.86A10.57,10.57,0,0,1,135,56a10.15,10.15,0,0,1,7.07,2.56,11.35,11.35,0,0,1,3.45,6.31h-4.81a6.63,6.63,0,0,0-2-3.08,5.9,5.9,0,0,0-3.7-1.25,6.31,6.31,0,0,0-2.76.63,5.83,5.83,0,0,0-1.89,1.55,5,5,0,0,0-1.17,2.48,35.69,35.69,0,0,0-.33,6,34.8,34.8,0,0,0,.33,6,5,5,0,0,0,1.17,2.53,5.25,5.25,0,0,0,1.89,1.5,5.38,5.38,0,0,0,2.76.68c2.55,0,4.45-1.37,5.71-4.09Z"/><path class="cls-1" d="M148.36,56.21h4.3V80.67c0,1,.53,1.45,1.6,1.45h1.48v4h-1.91A6.14,6.14,0,0,1,150,85a4.67,4.67,0,0,1-1.61-4Z"/><path class="cls-1" d="M170.41,84.28h-.08a3.53,3.53,0,0,1-1.85,1.6,8.71,8.71,0,0,1-3.41.54,7.83,7.83,0,0,1-5.51-1.89,5.94,5.94,0,0,1-2-4.63,6,6,0,0,1,1.77-4.45,7,7,0,0,1,5.17-1.85h5.94V71.36q0-2.82-4.37-2.74a7.75,7.75,0,0,0-2.53.33A3.05,3.05,0,0,0,162,70.27l-3.37-2.57q2.44-3.21,7.21-3.12a11.43,11.43,0,0,1,6.43,1.52c1.6,1.06,2.42,2.9,2.45,5.5V86.17h-4.3Zm0-7.15h-5.13c-2.5.06-3.73.91-3.7,2.57a2.29,2.29,0,0,0,1,1.85,4.51,4.51,0,0,0,3.06.84,7.42,7.42,0,0,0,3.81-.64c.67-.45,1-1.47,1-3.08ZM167.76,56h5.65l-6,6.14H163.9Z"/><path class="cls-1" d="M180.26,64.84h4.29v12.7a4.55,4.55,0,0,0,1.21,3.37,4.08,4.08,0,0,0,3,1.21,4,4,0,0,0,3-1.21,4.58,4.58,0,0,0,1.2-3.37V64.84h4.29V86.17H193V83.89h-.09a6.84,6.84,0,0,1-5.52,2.53,7.23,7.23,0,0,1-4.79-1.93A6.66,6.66,0,0,1,180.26,79Z"/><path class="cls-1" d="M215.62,83.93a7.25,7.25,0,0,1-5.53,2.49,7.07,7.07,0,0,1-3.31-.8,7.22,7.22,0,0,1-2.4-2,5.43,5.43,0,0,1-1.17-2.74,29.47,29.47,0,0,1-.35-5.42,29.73,29.73,0,0,1,.35-5.47,5.31,5.31,0,0,1,1.17-2.65,6.61,6.61,0,0,1,5.71-2.79,6.87,6.87,0,0,1,3,.67,12.45,12.45,0,0,1,2.49,1.85V56.21h4.29v30h-4.29Zm-4.21-15.06a4.32,4.32,0,0,0-2.32.51,3.26,3.26,0,0,0-1.3,1.52,7.88,7.88,0,0,0-.51,2.1c-.08.81-.13,1.64-.13,2.49a22.7,22.7,0,0,0,.13,2.36,7.83,7.83,0,0,0,.51,2.18,3.52,3.52,0,0,0,1.3,1.52,4,4,0,0,0,2.32.57,4.14,4.14,0,0,0,2.4-.61A3,3,0,0,0,215,80a8,8,0,0,0,.56-2.16c0-.78,0-1.55,0-2.3s0-1.61,0-2.37A7.75,7.75,0,0,0,215,71a3,3,0,0,0-1.21-1.56A4.22,4.22,0,0,0,211.41,68.87Z"/><path class="cls-1" d="M224.83,56.21h4.29v4.3h-4.29Zm0,8.63h4.29V86.17h-4.29Z"/><path class="cls-1" d="M233.74,75.49a18.57,18.57,0,0,1,.56-5.18,7.38,7.38,0,0,1,1.77-3,8.11,8.11,0,0,1,2.46-1.91,8.94,8.94,0,0,1,4-.84,9.15,9.15,0,0,1,4.09.84A7.59,7.59,0,0,1,249,67.33a6.75,6.75,0,0,1,1.81,3,20.17,20.17,0,0,1,.51,5.18,19.72,19.72,0,0,1-.51,5.14A7.44,7.44,0,0,1,249,83.69a7,7,0,0,1-1,.92,4.9,4.9,0,0,1-1.38.89,8.71,8.71,0,0,1-4.09.92,8.52,8.52,0,0,1-4-.92,8.05,8.05,0,0,1-4.23-4.87A18.16,18.16,0,0,1,233.74,75.49Zm13.3,0a18.79,18.79,0,0,0-.21-3.33,3.83,3.83,0,0,0-.84-1.77,3.14,3.14,0,0,0-1.4-1.13,4.58,4.58,0,0,0-2.05-.43,4.69,4.69,0,0,0-2,.43,3.91,3.91,0,0,0-1.43,1.13,4.93,4.93,0,0,0-.8,1.77,15.31,15.31,0,0,0-.25,3.29,14.78,14.78,0,0,0,.25,3.24,3.77,3.77,0,0,0,2.23,2.94,4.57,4.57,0,0,0,2,.45,4.45,4.45,0,0,0,2.05-.45,3.92,3.92,0,0,0,1.4-1.09,4.07,4.07,0,0,0,.84-1.85A17.5,17.5,0,0,0,247,75.53Z"/></g></g></svg>