<svg xmlns="http://www.w3.org/2000/svg" xmlns:xlink="http://www.w3.org/1999/xlink" viewBox="0 0 339.16 84.09"><defs><style>.cls-1{fill:#fff;}.cls-2{fill:url(#linear-gradient);}.cls-3{fill:url(#linear-gradient-2);}.cls-4{fill:url(#linear-gradient-3);}.cls-5{fill:url(#linear-gradient-4);}</style><linearGradient id="linear-gradient" x1="66.3" y1="30.58" x2="77.31" y2="42.1" gradientUnits="userSpaceOnUse"><stop offset="0" stop-opacity="0.2"/><stop offset="1" stop-color="#fff" stop-opacity="0"/></linearGradient><linearGradient id="linear-gradient-2" x1="33.07" y1="67.41" x2="41.63" y2="76.91" xlink:href="#linear-gradient"/><linearGradient id="linear-gradient-3" x1="51.05" y1="17.16" x2="45.11" y2="9.07" xlink:href="#linear-gradient"/><linearGradient id="linear-gradient-4" x1="17.17" y1="51.42" x2="7.37" y2="42.65" xlink:href="#linear-gradient"/></defs><title>logo</title><g id="Layer_2" data-name="Layer 2"><g id="Layer_1-2" data-name="Layer 1"><g id="_Group_" data-name="&lt;Group&gt;"><g id="_Group_2" data-name="&lt;Group&gt;"><g id="_Group_3" data-name="&lt;Group&gt;"><polygon id="_Path_" data-name="&lt;Path&gt;" class="cls-1" points="42.05 84.09 23.36 65.4 65.4 23.36 84.09 42.05 68.91 57.23 61.9 50.22 70.08 42.05 65.4 37.37 37.37 65.4 42.05 70.08 50.22 61.9 57.23 68.91 42.05 84.09"/></g><g id="_Group_4" data-name="&lt;Group&gt;"><polygon id="_Path_2" data-name="&lt;Path&gt;" class="cls-1" points="18.69 60.73 0 42.05 15.18 26.86 22.19 33.87 14.02 42.05 18.69 46.72 46.72 18.69 42.05 14.02 33.87 22.19 26.86 15.18 42.05 0 60.73 18.69 18.69 60.73"/></g></g><g id="_Group_5" data-name="&lt;Group&gt;"><polygon id="_Path_3" data-name="&lt;Path&gt;" class="cls-2" points="65.43 37.18 72.42 30.08 84.09 41.66 70.12 41.66 65.43 37.18"/><polyline id="_Path_4" data-name="&lt;Path&gt;" class="cls-3" points="37.37 65.12 30.37 72.27 42.05 84.09 42.05 69.51"/><polygon id="_Path_5" data-name="&lt;Path&gt;" class="cls-4" points="46.72 18.69 53.73 11.68 42.05 0 42.05 14.02 46.72 18.69"/><polygon id="_Path_6" data-name="&lt;Path&gt;" class="cls-5" points="18.69 46.53 11.68 53.44 0 41.66 14.01 41.66 18.69 46.53"/></g></g><path class="cls-1" d="M106.73,46.87c.13,2.41,1.4,3.77,3.63,3.77,2.67,0,3.76-1.59,3.76-4.67V28.87h7.3V46c0,7.71-4.67,11.16-11,11.16-6.8,0-10.79-4.22-11.06-10.3Z"/><path class="cls-1" d="M134.44,57.17c-6.17,0-10.43-4.35-10.43-10.66s4.26-10.65,10.43-10.65,10.43,4.35,10.43,10.65S140.65,57.17,134.44,57.17Zm0-15.47c-2.18,0-3.4,2-3.4,4.81s1.22,4.76,3.4,4.76,3.45-2,3.45-4.76S136.66,41.7,134.44,41.7Z"/><path class="cls-1" d="M159,56.72v-1a8.05,8.05,0,0,1-4.9,1.41c-4,0-7.44-2.27-7.44-6.58,0-3.94,3.41-6.48,7.85-6.48A9.17,9.17,0,0,1,159,45.15V43.84a2.57,2.57,0,0,0-4.9-1h-6.71c.59-3.94,4.08-7.07,9.34-7.07,5.81,0,9.12,3.08,9.12,8.39V56.72Zm4.85-29.35c0,3.68-1,6.81-4,6.81-2.08,0-3-1.64-4.49-1.64-.72,0-1.13.59-1.13,1.5h-3.9c0-3.67,1-6.8,4-6.8,2.08,0,3.08,1.63,4.49,1.63.68,0,1.13-.59,1.13-1.5ZM159,49.82a3.37,3.37,0,0,0-3-1.4c-1.41,0-2.81.59-2.81,1.95s1.4,2,2.81,2A3.44,3.44,0,0,0,159,51Z"/><path class="cls-1" d="M178.7,57.17c-6.16,0-10.43-4.35-10.43-10.66s4.27-10.65,10.43-10.65,10.43,4.35,10.43,10.65S184.92,57.17,178.7,57.17Zm0-15.47c-2.17,0-3.4,2-3.4,4.81s1.23,4.76,3.4,4.76,3.45-2,3.45-4.76S180.93,41.7,178.7,41.7Z"/><path class="cls-1" d="M213.44,28.42c6.94,0,11,4.12,12,9.79h-7.25a4.72,4.72,0,0,0-4.77-3.4c-3.85,0-6,3.4-6,8s2.18,8,6,8a4.71,4.71,0,0,0,4.77-3.44h7.25c-1,5.71-5.08,9.84-12,9.84-7.8,0-13.37-5.94-13.37-14.38S205.64,28.42,213.44,28.42Z"/><path class="cls-1" d="M235.44,56.72h-7.12V27.24h7.12Z"/><path class="cls-1" d="M250.63,56.72v-1a8.05,8.05,0,0,1-4.9,1.41c-4,0-7.43-2.27-7.43-6.58,0-3.94,3.4-6.48,7.84-6.48a9.14,9.14,0,0,1,4.49,1.13V43.84a2.57,2.57,0,0,0-4.9-1H239c.59-3.94,4.08-7.07,9.34-7.07,5.81,0,9.12,3.08,9.12,8.39V56.72Zm0-6.9a3.37,3.37,0,0,0-3-1.4c-1.41,0-2.81.59-2.81,1.95s1.4,2,2.81,2a3.44,3.44,0,0,0,3-1.36ZM245.24,34l3.71-6.8h6.76L251.77,34Z"/><path class="cls-1" d="M280.61,56.72h-7.12V55a7.29,7.29,0,0,1-5.44,2.22c-4.49,0-7.17-3-7.17-7.48V36.31H268V48c0,1.72.81,3,2.63,3a3,3,0,0,0,2.9-2.27V36.31h7.12Z"/><path class="cls-1" d="M297.48,55.08a7.09,7.09,0,0,1-5,2.09c-5.9,0-9.12-4.76-9.12-10.66s3.22-10.65,9.12-10.65a7.08,7.08,0,0,1,5,2.08V27.24h7.12V56.72h-7.12Zm0-11.29a3.54,3.54,0,0,0-3.13-1.9c-2.45,0-3.9,2-3.9,4.62s1.45,4.58,3.9,4.58a3.42,3.42,0,0,0,3.13-1.9Z"/><path class="cls-1" d="M312,34.59a3.84,3.84,0,1,1,4-3.81A3.83,3.83,0,0,1,312,34.59Zm3.53,22.13h-7.12V36.31h7.12Z"/><path class="cls-1" d="M328.73,57.17c-6.17,0-10.43-4.35-10.43-10.66s4.26-10.65,10.43-10.65,10.43,4.35,10.43,10.65S334.94,57.17,328.73,57.17Zm0-15.47c-2.18,0-3.4,2-3.4,4.81s1.22,4.76,3.4,4.76,3.45-2,3.45-4.76S331,41.7,328.73,41.7Z"/></g></g></svg>